<svg width="35" height="35" fill="none" xmlns="http://www.w3.org/2000/svg"><path d="M29.818 29.826h-5.182v-8.122c0-1.937-.039-4.43-2.703-4.43-2.7 0-3.113 2.108-3.113 4.288v8.264h-5.184V13.125h4.978V15.4h.068c.696-1.31 2.388-2.697 4.916-2.697 5.25 0 6.222 3.457 6.222 7.955v9.168h-.002zM7.784 10.84a3.006 3.006 0 01-2.502-4.684 3.01 3.01 0 112.5 4.684h.002zm2.597 18.986H5.184V13.125h5.2v16.7h-.003zM32.414 0H2.584C1.154 0 0 1.128 0 2.522v29.956C0 33.872 1.155 35 2.582 35h29.824C33.833 35 35 33.872 35 32.478V2.522C35 1.128 33.833 0 32.406 0h.008z" fill="#000"/></svg>