<svg width="244" height="74" fill="none" xmlns="http://www.w3.org/2000/svg"><g clip-path="url(#clip0)"><path d="M83.17 14.64L68.83 45.18v.66h5.4l4.89-11.18a4.961 4.961 0 00-.05.5 5.275 5.275 0 1010.55 0 5.075 5.075 0 00-.06-.55l4.89 11.22h5.36v-.66L85.56 14.64h-2.39zm1.17 15.26a5.24 5.24 0 00-3.9 1.75l3.92-9 3.93 9a5.242 5.242 0 00-3.95-1.75zm38.73-3.75l.35 9.47-18.81-20.84h-1.86v31.07h5.09V34.61l-.35-9.83 18.94 21.11h1.77V14.86h-5.13v11.29zm-59.43 9.16A5.808 5.808 0 0161.69 40a7.31 7.31 0 01-5 1.68 7.46 7.46 0 01-5-1.68 5.79 5.79 0 01-2-4.65V14.86H44.6v20.59a9.77 9.77 0 003.45 7.9 13 13 0 008.67 2.9 12.82 12.82 0 008.57-2.9 9.8 9.8 0 003.43-7.9V14.86h-5.08v20.45zm67.25-15.89h8.99v26.43h5.04V19.42h8.99v-4.56h-23.02v4.56zm85.9-4.78h-2.39L201.93 41.2H189V14.86h-5.18v31h21.65l4.89-11.18a4.932 4.932 0 00-.05.5 5.276 5.276 0 0010.55 0 5.075 5.075 0 00-.06-.55l4.89 11.22H231v-.66l-14.21-30.55zm-1.21 15.26a5.244 5.244 0 00-3.9 1.75l3.92-9 3.93 9a5.24 5.24 0 00-3.95-1.75zm-40.25 5.41a5.813 5.813 0 01-1.95 4.69 7.31 7.31 0 01-5 1.68 7.459 7.459 0 01-5-1.68 5.777 5.777 0 01-2-4.65V14.86h-5.13v20.59a9.768 9.768 0 003.45 7.9 13 13 0 008.68 2.9 12.82 12.82 0 008.57-2.9 9.79 9.79 0 002.629-3.553 9.787 9.787 0 00.801-4.347V14.86h-5.09l.04 20.45zm-144-4.65a5.42 5.42 0 10-3.41 5l4.55 4.55a11.43 11.43 0 01-6.53 2.07 11.62 11.62 0 1111.62-11.62h4.66a16.28 16.28 0 10-16.28 16.28 16 16 0 009.84-3.41l2.3 2.28h6.44L31 32.39c.205-.555.316-1.14.33-1.73z" fill="#fff"/><path d="M219.19 35.17a3.613 3.613 0 01-6.163 2.553 3.614 3.614 0 01-.782-3.934 3.61 3.61 0 016.945 1.381zM88 35.17a3.61 3.61 0 11-7.22 0 3.61 3.61 0 017.22 0z" fill="#FDE62E"/><path d="M29.54 30.66a3.66 3.66 0 11-7.321 0 3.66 3.66 0 017.321 0z" fill="#B8B3B9"/><path d="M29.54 30.66a3.66 3.66 0 11-7.321 0 3.66 3.66 0 017.321 0z" fill="#FDE62E"/></g><defs><clipPath id="clip0"><path fill="#fff" d="M0 0h244v73.33H0z"/></clipPath></defs></svg>