<svg width="49" height="35" fill="none" xmlns="http://www.w3.org/2000/svg"><path d="M47.09 3.005C45.321.87 42.056 0 35.82 0H13.18C6.801 0 3.48.927 1.718 3.199 0 5.414 0 8.678 0 13.195v8.61C0 30.557 2.038 35 13.18 35h22.64c5.407 0 8.404-.768 10.343-2.651C48.152 30.417 49 27.264 49 21.805v-8.61c0-4.764-.133-8.047-1.91-10.19zM31.458 18.689l-10.28 5.453a1.56 1.56 0 01-1.551-.05 1.61 1.61 0 01-.762-1.372V11.849c0-.56.288-1.08.76-1.371a1.56 1.56 0 011.55-.053l10.28 5.418c.523.276.851.824.852 1.422a1.61 1.61 0 01-.849 1.424z" fill="#F4F4F4"/></svg>